<mxfile host="app.diagrams.net" modified="2023-05-28T08:05:24.515Z" agent="Mozilla/5.0 (Windows NT 10.0; Win64; x64) AppleWebKit/537.36 (KHTML, like Gecko) Chrome/113.0.0.0 Safari/537.36 Edg/113.0.1774.57" etag="IlW9aspRjXVYjblj70qa" version="21.3.5" type="github">
  <diagram id="C5RBs43oDa-KdzZeNtuy" name="Page-1">
    <mxGraphModel dx="998" dy="539" grid="1" gridSize="10" guides="1" tooltips="1" connect="1" arrows="1" fold="1" page="1" pageScale="1" pageWidth="827" pageHeight="1169" math="0" shadow="0">
      <root>
        <mxCell id="WIyWlLk6GJQsqaUBKTNV-0" />
        <mxCell id="WIyWlLk6GJQsqaUBKTNV-1" parent="WIyWlLk6GJQsqaUBKTNV-0" />
        <mxCell id="bUJONa-P3aqPYyuJV2xs-4" value="StrategyDeveloper" style="swimlane;fontStyle=1;align=center;verticalAlign=top;childLayout=stackLayout;horizontal=1;startSize=26;horizontalStack=0;resizeParent=1;resizeParentMax=0;resizeLast=0;collapsible=1;marginBottom=0;whiteSpace=wrap;html=1;" vertex="1" parent="WIyWlLk6GJQsqaUBKTNV-1">
          <mxGeometry x="229" y="190" width="380" height="210" as="geometry" />
        </mxCell>
        <mxCell id="bUJONa-P3aqPYyuJV2xs-5" value="- existingStrategies: List&lt;br&gt;- optimizationTechnic: Optimization Technic" style="text;strokeColor=none;fillColor=none;align=left;verticalAlign=top;spacingLeft=4;spacingRight=4;overflow=hidden;rotatable=0;points=[[0,0.5],[1,0.5]];portConstraint=eastwest;whiteSpace=wrap;html=1;" vertex="1" parent="bUJONa-P3aqPYyuJV2xs-4">
          <mxGeometry y="26" width="380" height="34" as="geometry" />
        </mxCell>
        <mxCell id="bUJONa-P3aqPYyuJV2xs-6" value="" style="line;strokeWidth=1;fillColor=none;align=left;verticalAlign=middle;spacingTop=-1;spacingLeft=3;spacingRight=3;rotatable=0;labelPosition=right;points=[];portConstraint=eastwest;strokeColor=inherit;" vertex="1" parent="bUJONa-P3aqPYyuJV2xs-4">
          <mxGeometry y="60" width="380" height="48" as="geometry" />
        </mxCell>
        <mxCell id="bUJONa-P3aqPYyuJV2xs-7" value="+&amp;nbsp;developStrategy(): Strategy&lt;br&gt;+&amp;nbsp;optimizeStrategy(strategy: Strategy): Strategy&lt;br&gt;+&amp;nbsp;addExistingStrategy(strategy: Strategy): void&lt;br&gt;+&amp;nbsp;emoveExistingStrategy(strategy: Strategy): void&lt;br&gt;+&amp;nbsp;&amp;nbsp;setOptimizationTechnique(technique: OptimizationTechnique): void" style="text;strokeColor=none;fillColor=none;align=left;verticalAlign=top;spacingLeft=4;spacingRight=4;overflow=hidden;rotatable=0;points=[[0,0.5],[1,0.5]];portConstraint=eastwest;whiteSpace=wrap;html=1;" vertex="1" parent="bUJONa-P3aqPYyuJV2xs-4">
          <mxGeometry y="108" width="380" height="102" as="geometry" />
        </mxCell>
        <mxCell id="bUJONa-P3aqPYyuJV2xs-22" value="Strategy" style="swimlane;fontStyle=1;align=center;verticalAlign=top;childLayout=stackLayout;horizontal=1;startSize=26;horizontalStack=0;resizeParent=1;resizeParentMax=0;resizeLast=0;collapsible=1;marginBottom=0;whiteSpace=wrap;html=1;" vertex="1" parent="WIyWlLk6GJQsqaUBKTNV-1">
          <mxGeometry x="230" y="479" width="380" height="180" as="geometry" />
        </mxCell>
        <mxCell id="bUJONa-P3aqPYyuJV2xs-23" value="- name: String&lt;br&gt;- parameters: Map&amp;lt;String, Object&amp;gt;" style="text;strokeColor=none;fillColor=none;align=left;verticalAlign=top;spacingLeft=4;spacingRight=4;overflow=hidden;rotatable=0;points=[[0,0.5],[1,0.5]];portConstraint=eastwest;whiteSpace=wrap;html=1;" vertex="1" parent="bUJONa-P3aqPYyuJV2xs-22">
          <mxGeometry y="26" width="380" height="34" as="geometry" />
        </mxCell>
        <mxCell id="bUJONa-P3aqPYyuJV2xs-24" value="" style="line;strokeWidth=1;fillColor=none;align=left;verticalAlign=middle;spacingTop=-1;spacingLeft=3;spacingRight=3;rotatable=0;labelPosition=right;points=[];portConstraint=eastwest;strokeColor=inherit;" vertex="1" parent="bUJONa-P3aqPYyuJV2xs-22">
          <mxGeometry y="60" width="380" height="48" as="geometry" />
        </mxCell>
        <mxCell id="bUJONa-P3aqPYyuJV2xs-25" value="+&amp;nbsp;getName(): String&amp;nbsp;&lt;br&gt;+ setName(name: String): void&lt;br&gt;+ getParameters(): Map&amp;lt;String, Object&amp;gt;&lt;br&gt;+ setParameters(parameters: Map&amp;lt;String, Object&amp;gt;): void" style="text;strokeColor=none;fillColor=none;align=left;verticalAlign=top;spacingLeft=4;spacingRight=4;overflow=hidden;rotatable=0;points=[[0,0.5],[1,0.5]];portConstraint=eastwest;whiteSpace=wrap;html=1;" vertex="1" parent="bUJONa-P3aqPYyuJV2xs-22">
          <mxGeometry y="108" width="380" height="72" as="geometry" />
        </mxCell>
      </root>
    </mxGraphModel>
  </diagram>
</mxfile>
